<svg width="600" height="450" viewBox="-300 -450 600 500" xmlns="http://www.w3.org/2000/svg"><path d="M0,-400 L-3.14,-399.98 L-6.28,-399.9 L-9.42,-399.78 L-12.56,-399.61 L-15.69,-399.38 L-18.82,-399.11 L-21.95,-398.79 L-25.07,-398.42 L-28.18,-398 L-31.29,-397.54 L-34.39,-397.02 L-37.48,-396.46 L-67.75,-388.18 L-70.69,-387.09 L-73.62,-385.96 L-76.54,-384.78 L-101.81,-372.15 L-104.5,-370.53 L-107.17,-368.87 L-143.63,-339.18 L-145.79,-336.91 L-147.93,-334.6 L-167.16,-309.8 L-168.87,-307.17 L-188.18,-267.75 L-189.22,-264.78 L-190.21,-261.8 L-191.16,-258.81 L-196.46,-237.48 L-197.02,-234.39 L-197.54,-231.29 L-198,-228.18 L-198.42,-225.07 L-198.79,-221.95 L-199.11,-218.82 L-199.38,-215.69 L-199.61,-212.56 L-199.78,-209.42 L-199.9,-206.28 L-199.98,-203.14 L-200,-200 L-199.98,-196.86 L-199.9,-193.72 L-199.78,-190.58 L-199.61,-187.44 L-199.38,-184.31 L-199.11,-181.18 L-198.79,-178.05 L-198.42,-174.93 L-198,-171.82 L-197.54,-168.71 L-197.02,-165.61 L-196.46,-162.52 L-192.91,-147.23 L-192.06,-144.2 L-191.16,-141.19 L-190.21,-138.2 L-189.22,-135.22 L-170.53,-95.5 L-168.87,-92.83 L-167.16,-90.2 L-147.93,-65.4 L-145.79,-63.09 L-143.63,-60.82 L-107.17,-31.13 L-104.5,-29.47 L-101.81,-27.85 L-76.54,-15.22 L-73.62,-14.04 L-70.69,-12.91 L-67.75,-11.82 L-64.78,-10.78 L-37.48,-3.54 L-34.39,-2.98 L-31.29,-2.46 L-28.18,-2 L-25.07,-1.58 L-21.95,-1.21 L-18.82,-0.89 L-15.69,-0.62 L-12.56,-0.39 L-9.42,-0.22 L-6.28,-0.1 L-3.14,-0.02 L0,0 L3.14,-0.02 L6.28,-0.1 L9.42,-0.22 L12.56,-0.39 L15.69,-0.62 L18.82,-0.89 L21.95,-1.21 L25.07,-1.58 L28.18,-2 L31.29,-2.46 L34.39,-2.98 L37.48,-3.54 L64.78,-10.78 L67.75,-11.82 L70.69,-12.91 L73.62,-14.04 L76.54,-15.22 L101.81,-27.85 L104.5,-29.47 L107.17,-31.13 L143.63,-60.82 L145.79,-63.09 L147.93,-65.4 L167.16,-90.2 L168.87,-92.83 L170.53,-95.5 L189.22,-135.22 L190.21,-138.2 L191.16,-141.19 L192.06,-144.2 L192.91,-147.23 L197.02,-165.61 L197.54,-168.71 L198,-171.82 L198.42,-174.93 L198.79,-178.05 L199.11,-181.18 L199.38,-184.31 L199.61,-187.44 L199.78,-190.58 L199.9,-193.72 L199.98,-196.86 L200,-200 L199.98,-203.14 L199.9,-206.28 L199.78,-209.42 L199.61,-212.56 L199.38,-215.69 L199.11,-218.82 L198.79,-221.95 L198.42,-225.07 L198,-228.18 L197.54,-231.29 L197.02,-234.39 L196.46,-237.48 L191.16,-258.81 L190.21,-261.8 L189.22,-264.78 L188.18,-267.75 L168.87,-307.17 L167.16,-309.8 L165.42,-312.42 L145.79,-336.91 L143.63,-339.18 L107.17,-368.87 L104.5,-370.53 L101.81,-372.15 L76.54,-384.78 L73.62,-385.96 L70.69,-387.09 L46.69,-394.47 L43.63,-395.18 L40.56,-395.84 L37.48,-396.46 L34.39,-397.02 L31.29,-397.54 L28.18,-398 L25.07,-398.42 L21.95,-398.79 L18.82,-399.11 L15.69,-399.38 L12.56,-399.61 L9.42,-399.78 L6.28,-399.9 L3.14,-399.98 L0,-400" stroke="black" stroke-width="1.5" fill="none" style="z-index: 0;"/><image x="-17.65" y="-12.97" width="34.81" height="25.78" transform="rotate(0.00, -16.67, 0)" id="0" xmlns:xlink="http://www.w3.org/1999/xlink" xlink:href="./image/15.png"/><image x="-73.46" y="-21.6" width="55.13" height="42.57" transform="rotate(372.54, -18.82, -0.89)" id="1" xmlns:xlink="http://www.w3.org/1999/xlink" xlink:href="./image/22.png"/><image x="-106.68" y="-26.53" width="34.81" height="25.78" transform="rotate(386.64, -72.36, -13.55)" id="2" xmlns:xlink="http://www.w3.org/1999/xlink" xlink:href="./image/15.png"/><image x="-159.14" y="-50.18" width="55.13" height="42.57" transform="rotate(399.00, -104.50, -29.47)" id="3" xmlns:xlink="http://www.w3.org/1999/xlink" xlink:href="./image/22.png"/><image x="-181.31" y="-77.36" width="34.81" height="25.78" transform="rotate(412.75, -147.00, -64.39)" id="4" xmlns:xlink="http://www.w3.org/1999/xlink" xlink:href="./image/15.png"/><image x="-223.51" y="-113.54" width="55.13" height="42.57" transform="rotate(425.10, -168.87, -92.83)" id="5" xmlns:xlink="http://www.w3.org/1999/xlink" xlink:href="./image/22.png"/><image x="-225.97" y="-155.82" width="34.81" height="25.78" transform="rotate(438.82, -191.66, -142.85)" id="6" xmlns:xlink="http://www.w3.org/1999/xlink" xlink:href="./image/15.png"/><image x="-253.06" y="-195.64" width="55.13" height="42.57" transform="rotate(450.26, -198.42, -174.93)" id="7" xmlns:xlink="http://www.w3.org/1999/xlink" xlink:href="./image/22.png"/><image x="-232.06" y="-242.87" width="34.81" height="25.78" transform="rotate(463.98, -197.75, -229.89)" id="8" xmlns:xlink="http://www.w3.org/1999/xlink" xlink:href="./image/15.png"/><image x="-244.85" y="-282.51" width="55.13" height="42.57" transform="rotate(475.46, -190.21, -261.8)" id="9" xmlns:xlink="http://www.w3.org/1999/xlink" xlink:href="./image/22.png"/><image x="-200.05" y="-358.02" width="55.13" height="42.57" transform="rotate(500.63, -145.41, -337.31)" id="10" xmlns:xlink="http://www.w3.org/1999/xlink" xlink:href="./image/22.png"/><image x="-201.48" y="-322.77" width="34.81" height="25.78" transform="rotate(487.84, -167.16, -309.8)" id="11" xmlns:xlink="http://www.w3.org/1999/xlink" xlink:href="./image/15.png"/><image x="-138.82" y="-383.5" width="34.81" height="25.78" transform="rotate(513.01, -104.50, -370.53)" id="12" xmlns:xlink="http://www.w3.org/1999/xlink" xlink:href="./image/15.png"/><image x="-127.74" y="-406.87" width="55.13" height="42.57" transform="rotate(526.24, -73.10, -386.16)" id="13" xmlns:xlink="http://www.w3.org/1999/xlink" xlink:href="./image/22.png"/><image x="17.52" y="-21.44" width="55.13" height="42.57" transform="rotate(-12.82, 18.82, -0.89)" id="14" xmlns:xlink="http://www.w3.org/1999/xlink" xlink:href="./image/22.png"/><image x="71.48" y="-26.57" width="34.81" height="25.78" transform="rotate(-26.64, 72.47, -13.6)" id="15" xmlns:xlink="http://www.w3.org/1999/xlink" xlink:href="./image/15.png"/><image x="103.20" y="-50.02" width="55.13" height="42.57" transform="rotate(-39.00, 104.50, -29.47)" id="16" xmlns:xlink="http://www.w3.org/1999/xlink" xlink:href="./image/22.png"/><image x="146.10" y="-77.46" width="34.81" height="25.78" transform="rotate(-52.76, 147.08, -64.48)" id="17" xmlns:xlink="http://www.w3.org/1999/xlink" xlink:href="./image/15.png"/><image x="167.57" y="-113.38" width="55.13" height="42.57" transform="rotate(-65.10, 168.87, -92.83)" id="18" xmlns:xlink="http://www.w3.org/1999/xlink" xlink:href="./image/22.png"/><image x="190.72" y="-155.98" width="34.81" height="25.78" transform="rotate(-78.82, 191.70, -143.01)" id="19" xmlns:xlink="http://www.w3.org/1999/xlink" xlink:href="./image/15.png"/><image x="197.12" y="-195.48" width="55.13" height="42.57" transform="rotate(-90.26, 198.42, -174.93)" id="20" xmlns:xlink="http://www.w3.org/1999/xlink" xlink:href="./image/22.png"/><image x="196.74" y="-243.03" width="34.81" height="25.78" transform="rotate(-103.98, 197.72, -230.06)" id="21" xmlns:xlink="http://www.w3.org/1999/xlink" xlink:href="./image/15.png"/><image x="188.91" y="-282.35" width="55.13" height="42.57" transform="rotate(-115.46, 190.21, -261.8)" id="22" xmlns:xlink="http://www.w3.org/1999/xlink" xlink:href="./image/22.png"/><image x="165.12" y="-324.35" width="34.81" height="25.78" transform="rotate(-129.24, 166.11, -311.38)" id="23" xmlns:xlink="http://www.w3.org/1999/xlink" xlink:href="./image/15.png"/><image x="144.49" y="-357.46" width="55.13" height="42.57" transform="rotate(-140.63, 145.79, -336.91)" id="24" xmlns:xlink="http://www.w3.org/1999/xlink" xlink:href="./image/22.png"/><image x="101.89" y="-384.48" width="34.81" height="25.78" transform="rotate(-153.70, 102.88, -371.51)" id="25" xmlns:xlink="http://www.w3.org/1999/xlink" xlink:href="./image/15.png"/><image x="72.63" y="-398.93" width="34.81" height="25.78" transform="rotate(-163.46, 73.62, -385.96)" id="26" xmlns:xlink="http://www.w3.org/1999/xlink" xlink:href="./image/15.png"/></svg>