<svg width="600" height="500" viewBox="-300 -450 600 500" xmlns="http://www.w3.org/2000/svg"><path d="M-167.11,-400 L-167.38,-399 L-167.65,-398 L-167.92,-397 L-168.18,-396 L-168.45,-395 L-168.72,-394 L-168.99,-393 L-169.25,-392 L-169.52,-391 L-169.79,-390 L-170.06,-389 L-170.33,-388 L-170.59,-387 L-170.86,-386 L-171.13,-385 L-171.4,-384 L-171.66,-383 L-171.93,-382 L-179.36,-354 L-179.62,-353 L-179.88,-352 L-180.14,-351 L-180.4,-350 L-180.66,-349 L-180.92,-348 L-181.18,-347 L-181.44,-346 L-181.69,-345 L-181.95,-344 L-182.21,-343 L-182.46,-342 L-182.72,-341 L-182.97,-340 L-183.23,-339 L-183.48,-338 L-183.73,-337 L-183.98,-336 L-190.22,-310 L-190.44,-309 L-190.67,-308 L-190.89,-307 L-191.11,-306 L-191.33,-305 L-191.55,-304 L-191.77,-303 L-191.98,-302 L-192.2,-301 L-192.41,-300 L-192.62,-299 L-192.83,-298 L-193.04,-297 L-193.24,-296 L-193.45,-295 L-193.65,-294 L-193.85,-293 L-194.05,-292 L-194.25,-291 L-194.44,-290 L-194.63,-289 L-194.83,-288 L-195.02,-287 L-197.76,-271 L-197.91,-270 L-198.06,-269 L-198.21,-268 L-198.36,-267 L-198.5,-266 L-198.64,-265 L-198.77,-264 L-198.91,-263 L-199.04,-262 L-199.16,-261 L-199.29,-260 L-199.41,-259 L-199.53,-258 L-199.65,-257 L-199.76,-256 L-199.87,-255 L-199.98,-254 L-200.08,-253 L-200.18,-252 L-200.28,-251 L-200.37,-250 L-200.46,-249 L-200.55,-248 L-200.64,-247 L-200.72,-246 L-200.79,-245 L-200.87,-244 L-200.94,-243 L-201,-242 L-201.07,-241 L-201.13,-240 L-201.18,-239 L-201.23,-238 L-201.28,-237 L-201.33,-236 L-201.37,-235 L-201.4,-234 L-201.44,-233 L-201.46,-232 L-201.49,-231 L-201.51,-230 L-201.52,-229 L-201.54,-228 L-201.54,-227 L-201.55,-226 L-201.55,-225 L-201.54,-224 L-201.53,-223 L-201.52,-222 L-201.5,-221 L-201.48,-220 L-201.45,-219 L-201.42,-218 L-201.38,-217 L-201.34,-216 L-201.29,-215 L-201.24,-214 L-201.18,-213 L-201.12,-212 L-201.06,-211 L-200.99,-210 L-200.91,-209 L-200.83,-208 L-200.75,-207 L-200.65,-206 L-200.56,-205 L-200.46,-204 L-200.35,-203 L-192.39,-166 L-192.06,-165 L-191.72,-164 L-191.38,-163 L-191.03,-162 L-190.67,-161 L-190.3,-160 L-189.93,-159 L-189.55,-158 L-189.17,-157 L-188.78,-156 L-188.38,-155 L-170.71,-121 L-170.07,-120 L-169.42,-119 L-168.76,-118 L-168.1,-117 L-167.42,-116 L-166.75,-115 L-141.25,-83 L-140.34,-82 L-139.41,-81 L-138.48,-80 L-137.54,-79 L-136.6,-78 L-106.83,-50 L-105.63,-49 L-104.43,-48 L-103.21,-47 L-101.99,-46 L-100.75,-45 L-99.5,-44 L-69.76,-23 L-68.12,-22 L-66.44,-21 L-64.72,-20 L-62.98,-19 L-61.19,-18 L-59.36,-17 L-31.46,-5 L-28.09,-4 L-24.27,-3 L-19.78,-2 L-13.96,-1 L0,0 L13.96,-1 L19.78,-2 L24.27,-3 L28.09,-4 L31.46,-5 L64.72,-20 L66.44,-21 L68.12,-22 L69.76,-23 L71.38,-24 L101.99,-46 L103.21,-47 L104.43,-48 L105.63,-49 L106.83,-50 L108.01,-51 L135.64,-77 L136.6,-78 L137.54,-79 L138.48,-80 L139.41,-81 L140.34,-82 L141.25,-83 L142.16,-84 L143.06,-85 L143.96,-86 L168.1,-117 L168.76,-118 L169.42,-119 L170.07,-120 L170.71,-121 L171.35,-122 L171.97,-123 L188.78,-156 L189.17,-157 L189.55,-158 L189.93,-159 L190.3,-160 L190.67,-161 L191.03,-162 L191.38,-163 L191.72,-164 L192.06,-165 L192.39,-166 L192.72,-167 L193.04,-168 L193.35,-169 L198.65,-191 L198.82,-192 L198.99,-193 L199.15,-194 L199.31,-195 L199.46,-196 L199.6,-197 L199.74,-198 L199.87,-199 L200,-200 L200.12,-201 L200.24,-202 L200.35,-203 L200.46,-204 L200.56,-205 L200.65,-206 L200.75,-207 L200.83,-208 L200.91,-209 L200.99,-210 L201.06,-211 L201.12,-212 L201.18,-213 L201.24,-214 L201.29,-215 L201.34,-216 L201.38,-217 L201.42,-218 L201.45,-219 L201.48,-220 L201.5,-221 L201.52,-222 L201.53,-223 L201.54,-224 L201.55,-225 L201.55,-226 L201.54,-227 L201.54,-228 L201.52,-229 L201.51,-230 L201.49,-231 L201.46,-232 L201.44,-233 L201.4,-234 L201.37,-235 L201.33,-236 L201.28,-237 L201.23,-238 L201.18,-239 L201.13,-240 L201.07,-241 L201,-242 L200.94,-243 L200.87,-244 L200.79,-245 L200.72,-246 L200.64,-247 L200.55,-248 L200.46,-249 L200.37,-250 L200.28,-251 L200.18,-252 L200.08,-253 L199.98,-254 L199.87,-255 L199.76,-256 L199.65,-257 L199.53,-258 L199.41,-259 L199.29,-260 L199.16,-261 L199.04,-262 L198.91,-263 L198.77,-264 L198.64,-265 L198.5,-266 L198.36,-267 L198.21,-268 L198.06,-269 L197.91,-270 L197.76,-271 L197.61,-272 L197.45,-273 L192.41,-300 L192.2,-301 L191.98,-302 L191.77,-303 L191.55,-304 L191.33,-305 L191.11,-306 L190.89,-307 L190.67,-308 L190.44,-309 L190.22,-310 L189.99,-311 L189.77,-312 L189.54,-313 L189.31,-314 L182.97,-340 L182.72,-341 L182.46,-342 L182.21,-343 L181.95,-344 L181.69,-345 L181.44,-346 L181.18,-347 L180.92,-348 L180.66,-349 L180.4,-350 L180.14,-351 L179.88,-352 L179.62,-353 L179.36,-354 L179.1,-355 L178.84,-356 L178.57,-357 L178.31,-358 L178.05,-359 L177.78,-360 L177.52,-361 L177.26,-362 L176.99,-363 L176.73,-364 L176.46,-365 L176.2,-366 L175.93,-367 L175.67,-368 L175.4,-369 L175.14,-370 L174.87,-371 L174.6,-372 L174.34,-373 L174.07,-374 L173.8,-375 L173.54,-376 L173.27,-377 L173,-378 L172.73,-379 L172.47,-380 L172.2,-381 L171.93,-382 L171.66,-383 L171.4,-384 L171.13,-385 L170.86,-386 L170.59,-387 L170.33,-388 L170.06,-389 L169.79,-390 L169.52,-391 L169.25,-392 L168.99,-393 L168.72,-394 L168.45,-395 L168.18,-396 L167.92,-397 L167.65,-398 L167.38,-399 L167.11,-400" stroke="black" stroke-width="1.5" fill="none" style="z-index: 0;"/><image x="-24.43" y="-25.26" width="48.88" height="50.17" transform="rotate(0.00, -23.37, 0)" id="0" xmlns:xlink="http://www.w3.org/1999/xlink" xlink:href="./image/371.png"/><image x="-71.66" y="-25.25" width="48.88" height="50.17" transform="rotate(382.94, -23.95, -2.93)" id="1" xmlns:xlink="http://www.w3.org/1999/xlink" xlink:href="./image/371.png"/><image x="-114.66" y="-43.63" width="48.88" height="50.17" transform="rotate(395.44, -66.96, -21.31)" id="2" xmlns:xlink="http://www.w3.org/1999/xlink" xlink:href="./image/371.png"/><image x="-152.91" y="-73.5" width="48.09" height="50.56" transform="rotate(402.93, -105.05, -48.52)" id="3" xmlns:xlink="http://www.w3.org/1999/xlink" xlink:href="./image/37.png"/><image x="-187.27" y="-105.98" width="48.09" height="50.56" transform="rotate(411.52, -139.41, -81)" id="4" xmlns:xlink="http://www.w3.org/1999/xlink" xlink:href="./image/37.png"/><image x="-216.62" y="-142.98" width="48.09" height="50.56" transform="rotate(422.64, -168.76, -118)" id="5" xmlns:xlink="http://www.w3.org/1999/xlink" xlink:href="./image/37.png"/><image x="-238.00" y="-182.32" width="48.88" height="50.17" transform="rotate(436.75, -190.30, -160)" id="6" xmlns:xlink="http://www.w3.org/1999/xlink" xlink:href="./image/371.png"/><image x="-248.42" y="-230.03" width="48.09" height="50.56" transform="rotate(450.61, -200.56, -205.04)" id="7" xmlns:xlink="http://www.w3.org/1999/xlink" xlink:href="./image/37.png"/><image x="-247.94" y="-277.98" width="48.09" height="50.56" transform="rotate(459.19, -200.08, -253)" id="8" xmlns:xlink="http://www.w3.org/1999/xlink" xlink:href="./image/37.png"/><image x="-240.27" y="-324.98" width="48.09" height="50.56" transform="rotate(463.42, -192.41, -300)" id="9" xmlns:xlink="http://www.w3.org/1999/xlink" xlink:href="./image/37.png"/><image x="-229.30" y="-370.98" width="48.09" height="50.56" transform="rotate(464.75, -181.44, -346)" id="10" xmlns:xlink="http://www.w3.org/1999/xlink" xlink:href="./image/37.png"/><image x="23.21" y="-28.26" width="48.88" height="50.17" transform="rotate(-22.83, 24.27, -3)" id="11" xmlns:xlink="http://www.w3.org/1999/xlink" xlink:href="./image/371.png"/><image x="66.82" y="-47.12" width="48.88" height="50.17" transform="rotate(-36.14, 67.87, -21.85)" id="12" xmlns:xlink="http://www.w3.org/1999/xlink" xlink:href="./image/371.png"/><image x="104.85" y="-74.5" width="48.88" height="50.17" transform="rotate(-43.18, 105.91, -49.23)" id="13" xmlns:xlink="http://www.w3.org/1999/xlink" xlink:href="./image/371.png"/><image x="140.46" y="-108.64" width="48.09" height="50.56" transform="rotate(-52.61, 141.63, -83.42)" id="14" xmlns:xlink="http://www.w3.org/1999/xlink" xlink:href="./image/37.png"/><image x="168.90" y="-145.22" width="48.09" height="50.56" transform="rotate(-63.41, 170.07, -120)" id="15" xmlns:xlink="http://www.w3.org/1999/xlink" xlink:href="./image/37.png"/><image x="189.86" y="-187.22" width="48.09" height="50.56" transform="rotate(-77.50, 191.03, -162)" id="16" xmlns:xlink="http://www.w3.org/1999/xlink" xlink:href="./image/37.png"/><image x="199.85" y="-234.26" width="48.88" height="50.17" transform="rotate(-91.59, 200.91, -209)" id="17" xmlns:xlink="http://www.w3.org/1999/xlink" xlink:href="./image/371.png"/><image x="198.71" y="-281.22" width="48.88" height="50.17" transform="rotate(-99.32, 199.77, -255.95)" id="18" xmlns:xlink="http://www.w3.org/1999/xlink" xlink:href="./image/371.png"/><image x="190.29" y="-329.62" width="48.09" height="50.56" transform="rotate(-103.09, 191.46, -304.4)" id="19" xmlns:xlink="http://www.w3.org/1999/xlink" xlink:href="./image/37.png"/></svg>