<svg width="600" height="450" viewBox="-300 -450 600 500" xmlns="http://www.w3.org/2000/svg"><path d="M-61.8,-390.21 L-64.49,-389.32 L-67.16,-388.39 L-69.81,-387.42 L-95.52,-375.71 L-98,-374.35 L-107.7,-368.53 L-110.07,-366.99 L-112.42,-365.42 L-136.68,-346.01 L-146.65,-335.99 L-148.56,-333.9 L-165.94,-311.64 L-167.51,-309.28 L-169.03,-306.9 L-174.81,-297.18 L-176.16,-294.69 L-186.75,-271.58 L-187.75,-268.93 L-188.7,-266.27 L-189.62,-263.59 L-192.15,-255.5 L-192.91,-252.77 L-193.64,-250.04 L-194.33,-247.3 L-194.98,-244.55 L-197.63,-230.67 L-198.05,-227.87 L-198.42,-225.07 L-198.76,-222.26 L-199.05,-219.45 L-199.31,-216.63 L-199.52,-213.81 L-199.7,-210.99 L-199.83,-208.17 L-199.93,-205.34 L-199.98,-202.51 L-200,-199.69 L-199.98,-196.86 L-199.91,-194.03 L-199.81,-191.21 L-199.66,-188.38 L-199.48,-185.56 L-199.25,-182.74 L-198.99,-179.93 L-198.69,-177.12 L-198.34,-174.31 L-197.96,-171.51 L-197.54,-168.71 L-195.45,-157.6 L-194.83,-154.84 L-194.18,-152.09 L-193.48,-149.35 L-184.41,-122.59 L-183.3,-119.99 L-177.19,-107.25 L-175.86,-104.75 L-158.99,-78.66 L-157.26,-76.43 L-148.14,-65.63 L-146.22,-63.55 L-123.32,-42.55 L-111.9,-34.23 L-109.54,-32.67 L-82.3,-17.72 L-79.72,-16.57 L-69.22,-12.36 L-66.56,-11.4 L-63.89,-10.48 L-61.21,-9.6 L-39.33,-3.9 L-36.55,-3.37 L-33.77,-2.87 L-30.98,-2.41 L-28.18,-2 L-25.38,-1.62 L-22.57,-1.28 L-19.76,-0.98 L-16.94,-0.72 L-14.13,-0.5 L-11.3,-0.32 L-8.48,-0.18 L-5.65,-0.08 L-2.83,-0.02 L0,0 L2.83,-0.02 L5.65,-0.08 L8.48,-0.18 L11.3,-0.32 L14.13,-0.5 L16.94,-0.72 L19.76,-0.98 L22.57,-1.28 L30.98,-2.41 L33.77,-2.87 L36.55,-3.37 L39.33,-3.9 L63.89,-10.48 L77.12,-15.47 L79.72,-16.57 L104.77,-29.64 L107.17,-31.13 L118.82,-39.12 L142.31,-59.47 L144.28,-61.5 L153.7,-72.03 L171.67,-97.38 L173.1,-99.82 L178.49,-109.76 L179.74,-112.29 L180.97,-114.84 L190.31,-138.5 L191.16,-141.19 L191.97,-143.9 L194.83,-154.84 L195.45,-157.6 L196.03,-160.37 L196.57,-163.14 L197.08,-165.92 L197.96,-171.51 L198.34,-174.31 L198.69,-177.12 L198.99,-179.93 L199.25,-182.74 L199.48,-185.56 L199.66,-188.38 L199.81,-191.21 L199.91,-194.03 L199.98,-196.86 L200,-199.69 L199.98,-202.51 L199.93,-205.34 L199.83,-208.17 L199.7,-210.99 L199.52,-213.81 L199.31,-216.63 L199.05,-219.45 L198.76,-222.26 L198.42,-225.07 L197.63,-230.67 L197.18,-233.46 L196.69,-236.24 L196.16,-239.02 L195.59,-241.79 L192.91,-252.77 L192.15,-255.5 L191.34,-258.21 L182.41,-282.02 L181.23,-284.59 L174.81,-297.18 L173.41,-299.64 L157.65,-323.08 L155.89,-325.29 L146.65,-335.99 L144.71,-338.05 L121.59,-358.8 L119.33,-360.5 L110.07,-366.99 L107.7,-368.53 L105.3,-370.03 L80.29,-383.17 L77.7,-384.29 L75.08,-385.37 L72.46,-386.41 L69.81,-387.42 L67.16,-388.39 L64.49,-389.32 L61.8,-390.21" stroke="black" stroke-width="1.5" fill="none" style="z-index: 0;"/><path d="M61.8,-390.21 L-61.8,-390.21" stroke="black" stroke-width="3.75" fill="none" id="path_e1"/><circle cx="-165.8" cy="-393.09888888888884" r="5.5" fill="black"/><circle cx="165.8" cy="-351.21" r="5.5" fill="black"/><path d="M61.8,-390.21 L61.8,-390.21 L65.8,-394.96 L69.8,-399.21 L73.8,-402.96 L77.8,-406.21 L81.8,-408.96 L85.8,-411.21 L89.8,-412.96 L93.8,-414.21 L97.8,-414.96 L101.8,-415.21 L105.8,-414.96 L109.8,-414.21 L113.8,-412.96 L117.8,-411.21 L121.8,-408.96 L125.8,-406.21 L129.8,-402.96 L133.8,-399.21 L137.8,-394.96 L141.8,-390.21 L145.8,-384.96 L149.8,-379.21 L153.8,-372.96 L157.8,-366.21 L161.8,-358.96 L165.8,-351.21" stroke="black" stroke-width="2.5" fill="none" id="path_e2"/><path d="M-61.8,-390.21 L-61.8,-390.21 L-65.8,-393.0988888888889 L-69.8,-395.7655555555555 L-73.8,-398.21 L-77.8,-400.4322222222222 L-81.8,-402.4322222222222 L-85.8,-404.21 L-89.8,-405.7655555555555 L-93.8,-407.0988888888889 L-97.8,-408.21 L-101.8,-409.0988888888889 L-105.8,-409.7655555555555 L-109.8,-410.21 L-113.8,-410.4322222222222 L-117.8,-410.4322222222222 L-121.8,-410.21 L-125.8,-409.7655555555555 L-129.8,-409.09888888888884 L-133.8,-408.21 L-137.8,-407.09888888888884 L-141.8,-405.7655555555555 L-145.8,-404.21 L-149.8,-402.4322222222222 L-153.8,-400.4322222222222 L-157.8,-398.21 L-161.8,-395.7655555555555 L-165.8,-393.09888888888884" stroke="black" stroke-width="2.5" fill="none" id="path_e3"/><image x="-17.86" y="-18.12" width="35.03" height="35.55" transform="rotate(0.00, -16.66, 0)" id="0" xmlns:xlink="http://www.w3.org/1999/xlink" xlink:href="./image/38.png"/><image x="-33.34" y="-8.67" width="15.02" height="15.02" transform="rotate(366.83, -18.99, -0.91)" id="1" xmlns:xlink="http://www.w3.org/1999/xlink" xlink:href="./image/39.png"/><image x="-67.57" y="-20.35" width="35.03" height="35.55" transform="rotate(374.78, -33.05, -2.75)" id="2" xmlns:xlink="http://www.w3.org/1999/xlink" xlink:href="./image/38.png"/><image x="-82.04" y="-19.57" width="15.02" height="15.02" transform="rotate(382.38, -67.69, -11.81)" id="3" xmlns:xlink="http://www.w3.org/1999/xlink" xlink:href="./image/39.png"/><image x="-115.39" y="-34.69" width="35.03" height="35.55" transform="rotate(389.11, -80.87, -17.08)" id="4" xmlns:xlink="http://www.w3.org/1999/xlink" xlink:href="./image/38.png"/><image x="-126.51" y="-42.18" width="15.02" height="15.02" transform="rotate(395.64, -112.16, -34.41)" id="5" xmlns:xlink="http://www.w3.org/1999/xlink" xlink:href="./image/39.png"/><image x="-157.84" y="-60.15" width="35.03" height="35.55" transform="rotate(402.26, -123.32, -42.55)" id="6" xmlns:xlink="http://www.w3.org/1999/xlink" xlink:href="./image/38.png"/><image x="-163.64" y="-74.69" width="15.02" height="15.02" transform="rotate(410.71, -149.29, -66.92)" id="7" xmlns:xlink="http://www.w3.org/1999/xlink" xlink:href="./image/39.png"/><image x="-192.88" y="-95.45" width="35.03" height="35.55" transform="rotate(417.40, -158.36, -77.85)" id="8" xmlns:xlink="http://www.w3.org/1999/xlink" xlink:href="./image/38.png"/><image x="-191.92" y="-115.75" width="15.02" height="15.02" transform="rotate(423.98, -177.57, -107.98)" id="9" xmlns:xlink="http://www.w3.org/1999/xlink" xlink:href="./image/39.png"/><image x="-218.17" y="-138.4" width="35.03" height="35.55" transform="rotate(431.99, -183.64, -120.8)" id="10" xmlns:xlink="http://www.w3.org/1999/xlink" xlink:href="./image/38.png"/><image x="-209.17" y="-162.56" width="15.02" height="15.02" transform="rotate(439.09, -194.82, -154.79)" id="11" xmlns:xlink="http://www.w3.org/1999/xlink" xlink:href="./image/39.png"/><image x="-232.07" y="-186.37" width="35.03" height="35.55" transform="rotate(445.23, -197.55, -168.76)" id="12" xmlns:xlink="http://www.w3.org/1999/xlink" xlink:href="./image/38.png"/><image x="-214.30" y="-212.07" width="15.02" height="15.02" transform="rotate(453.63, -199.95, -204.31)" id="13" xmlns:xlink="http://www.w3.org/1999/xlink" xlink:href="./image/39.png"/><image x="-233.66" y="-236.07" width="35.03" height="35.55" transform="rotate(460.33, -199.14, -218.47)" id="14" xmlns:xlink="http://www.w3.org/1999/xlink" xlink:href="./image/38.png"/><image x="-207.02" y="-261.4" width="15.02" height="15.02" transform="rotate(468.22, -192.67, -253.63)" id="15" xmlns:xlink="http://www.w3.org/1999/xlink" xlink:href="./image/39.png"/><image x="-222.91" y="-284.76" width="35.03" height="35.55" transform="rotate(474.94, -188.38, -267.15)" id="16" xmlns:xlink="http://www.w3.org/1999/xlink" xlink:href="./image/38.png"/><image x="-189.16" y="-304.94" width="15.02" height="15.02" transform="rotate(480.74, -174.81, -297.18)" id="17" xmlns:xlink="http://www.w3.org/1999/xlink" xlink:href="./image/39.png"/><image x="-201.99" y="-326.95" width="35.03" height="35.55" transform="rotate(487.38, -167.46, -309.35)" id="18" xmlns:xlink="http://www.w3.org/1999/xlink" xlink:href="./image/38.png"/><image x="-159.74" y="-345.09" width="15.02" height="15.02" transform="rotate(495.76, -145.39, -337.32)" id="19" xmlns:xlink="http://www.w3.org/1999/xlink" xlink:href="./image/39.png"/><image x="-171.20" y="-363.61" width="35.03" height="35.55" transform="rotate(501.11, -136.68, -346.01)" id="20" xmlns:xlink="http://www.w3.org/1999/xlink" xlink:href="./image/38.png"/><image x="-122.96" y="-375.7" width="15.02" height="15.02" transform="rotate(509.56, -108.61, -367.94)" id="21" xmlns:xlink="http://www.w3.org/1999/xlink" xlink:href="./image/39.png"/><image x="-132.52" y="-391.95" width="35.03" height="35.55" transform="rotate(515.59, -98.00, -374.35)" id="22" xmlns:xlink="http://www.w3.org/1999/xlink" xlink:href="./image/38.png"/><image x="15.93" y="-8.99" width="15.02" height="15.02" transform="rotate(-6.50, 16.94, -0.72)" id="23" xmlns:xlink="http://www.w3.org/1999/xlink" xlink:href="./image/39.png"/><image x="29.78" y="-20.53" width="35.03" height="35.55" transform="rotate(-14.54, 30.98, -2.41)" id="24" xmlns:xlink="http://www.w3.org/1999/xlink" xlink:href="./image/38.png"/><image x="63.34" y="-18.91" width="15.02" height="15.02" transform="rotate(-20.23, 64.35, -10.64)" id="25" xmlns:xlink="http://www.w3.org/1999/xlink" xlink:href="./image/39.png"/><image x="75.92" y="-33.59" width="35.03" height="35.55" transform="rotate(-28.30, 77.12, -15.47)" id="26" xmlns:xlink="http://www.w3.org/1999/xlink" xlink:href="./image/38.png"/><image x="106.57" y="-39.67" width="15.02" height="15.02" transform="rotate(-34.04, 107.58, -31.4)" id="27" xmlns:xlink="http://www.w3.org/1999/xlink" xlink:href="./image/39.png"/><image x="117.62" y="-57.24" width="35.03" height="35.55" transform="rotate(-40.67, 118.82, -39.12)" id="28" xmlns:xlink="http://www.w3.org/1999/xlink" xlink:href="./image/38.png"/><image x="143.27" y="-69.77" width="15.02" height="15.02" transform="rotate(-47.76, 144.28, -61.5)" id="29" xmlns:xlink="http://www.w3.org/1999/xlink" xlink:href="./image/39.png"/><image x="152.50" y="-90.15" width="35.03" height="35.55" transform="rotate(-54.44, 153.70, -72.03)" id="30" xmlns:xlink="http://www.w3.org/1999/xlink" xlink:href="./image/38.png"/><image x="172.09" y="-108.09" width="15.02" height="15.02" transform="rotate(-61.53, 173.10, -99.82)" id="31" xmlns:xlink="http://www.w3.org/1999/xlink" xlink:href="./image/39.png"/><image x="178.54" y="-130.41" width="35.03" height="35.55" transform="rotate(-68.19, 179.74, -112.29)" id="32" xmlns:xlink="http://www.w3.org/1999/xlink" xlink:href="./image/38.png"/><image x="190.96" y="-152.17" width="15.02" height="15.02" transform="rotate(-75.35, 191.97, -143.9)" id="33" xmlns:xlink="http://www.w3.org/1999/xlink" xlink:href="./image/39.png"/><image x="194.25" y="-175.72" width="35.03" height="35.55" transform="rotate(-81.96, 195.45, -157.6)" id="34" xmlns:xlink="http://www.w3.org/1999/xlink" xlink:href="./image/38.png"/><image x="198.80" y="-199.48" width="15.02" height="15.02" transform="rotate(-89.14, 199.81, -191.21)" id="35" xmlns:xlink="http://www.w3.org/1999/xlink" xlink:href="./image/39.png"/><image x="198.73" y="-223.46" width="35.03" height="35.55" transform="rotate(-95.74, 199.93, -205.34)" id="36" xmlns:xlink="http://www.w3.org/1999/xlink" xlink:href="./image/38.png"/><image x="195.15" y="-247.29" width="15.02" height="15.02" transform="rotate(-102.88, 196.16, -239.02)" id="37" xmlns:xlink="http://www.w3.org/1999/xlink" xlink:href="./image/39.png"/><image x="191.71" y="-270.89" width="35.03" height="35.55" transform="rotate(-109.51, 192.91, -252.77)" id="38" xmlns:xlink="http://www.w3.org/1999/xlink" xlink:href="./image/38.png"/><image x="180.10" y="-293.12" width="15.02" height="15.02" transform="rotate(-116.65, 181.11, -284.84)" id="39" xmlns:xlink="http://www.w3.org/1999/xlink" xlink:href="./image/39.png"/><image x="173.61" y="-315.3" width="35.03" height="35.55" transform="rotate(-123.32, 174.81, -297.18)" id="40" xmlns:xlink="http://www.w3.org/1999/xlink" xlink:href="./image/38.png"/><image x="154.69" y="-333.79" width="15.02" height="15.02" transform="rotate(-130.41, 155.70, -325.52)" id="41" xmlns:xlink="http://www.w3.org/1999/xlink" xlink:href="./image/39.png"/><image x="144.09" y="-355.55" width="35.03" height="35.55" transform="rotate(-138.44, 145.29, -337.43)" id="42" xmlns:xlink="http://www.w3.org/1999/xlink" xlink:href="./image/38.png"/><image x="118.67" y="-368.51" width="15.02" height="15.02" transform="rotate(-145.47, 119.68, -360.24)" id="43" xmlns:xlink="http://www.w3.org/1999/xlink" xlink:href="./image/39.png"/><image x="105.48" y="-387.29" width="35.03" height="35.55" transform="rotate(-152.99, 106.67, -369.17)" id="44" xmlns:xlink="http://www.w3.org/1999/xlink" xlink:href="./image/38.png"/></svg>