<svg width="600" height="546" viewBox="-300 -450 600 546" xmlns="http://www.w3.org/2000/svg"><path d="M0,-361.12 L-21.52,-360.04 L-30.32,-358.96 L-42.56,-356.8 L-51.73,-354.64 L-62.64,-351.4 L-71.51,-348.16 L-81.32,-343.84 L-91.39,-338.44 L-99.74,-333.04 L-108.09,-326.56 L-116.08,-319 L-122.59,-311.44 L-123.42,-310.36 L-128.59,-302.8 L-132.82,-295.24 L-133.35,-294.16 L-133.87,-293.08 L-137.06,-285.52 L-137.46,-284.44 L-137.85,-283.36 L-140.19,-275.8 L-140.47,-274.72 L-140.75,-273.64 L-142.16,-267.16 L-142.36,-266.08 L-142.55,-265 L-142.73,-263.92 L-142.9,-262.84 L-143.06,-261.76 L-143.35,-259.6 L-143.48,-258.52 L-143.6,-257.44 L-143.72,-256.36 L-143.82,-255.28 L-143.92,-254.2 L-144.01,-253.12 L-144.09,-252.04 L-144.16,-250.96 L-144.22,-249.88 L-144.28,-248.8 L-144.32,-247.72 L-144.36,-246.64 L-144.4,-245.56 L-144.42,-244.48 L-144.44,-243.4 L-144.45,-242.32 L-144.45,-241.24 L-144.44,-240.16 L-144.43,-239.08 L-144.41,-238 L-144.38,-236.92 L-144.35,-235.84 L-144.31,-234.76 L-144.26,-233.68 L-144.21,-232.6 L-144.15,-231.52 L-144.09,-230.44 L-144.01,-229.36 L-143.94,-228.28 L-143.85,-227.2 L-143.76,-226.12 L-143.66,-225.04 L-143.56,-223.96 L-143.45,-222.88 L-143.34,-221.8 L-142.68,-216.4 L-142.53,-215.32 L-142.38,-214.24 L-142.22,-213.16 L-142.06,-212.08 L-141.89,-211 L-140.97,-205.6 L-140.77,-204.52 L-140.56,-203.44 L-140.36,-202.36 L-138.77,-194.8 L-138.52,-193.72 L-138.28,-192.64 L-138.02,-191.56 L-136.13,-184 L-135.85,-182.92 L-135.56,-181.84 L-133.42,-174.28 L-133.1,-173.2 L-132.78,-172.12 L-130.05,-163.48 L-129.7,-162.4 L-126.73,-153.76 L-126.34,-152.68 L-123.14,-144.04 L-122.72,-142.96 L-119.28,-134.32 L-118.84,-133.24 L-115.18,-124.6 L-114.71,-123.52 L-110.81,-114.88 L-110.31,-113.8 L-106.19,-105.16 L-101.84,-96.52 L-101.28,-95.44 L-96.66,-86.8 L-96.06,-85.72 L-91.78,-78.16 L-91.14,-77.08 L-85.92,-68.44 L-80.33,-59.8 L-74.32,-51.16 L-68.61,-43.6 L-67.76,-42.52 L-61.44,-34.96 L-54.4,-27.4 L-46.29,-19.84 L-37.98,-13.36 L-29.32,-7.96 L-19.83,-3.64 L-12.64,-1.48 L-6.57,-0.4 L0,0 L6.57,-0.4 L12.64,-1.48 L22.58,-4.72 L31.25,-9.04 L39.49,-14.44 L47.53,-20.92 L54.4,-27.4 L55.46,-28.48 L61.44,-34.96 L62.39,-36.04 L68.61,-43.6 L74.32,-51.16 L75.1,-52.24 L80.33,-59.8 L81.05,-60.88 L85.92,-68.44 L86.59,-69.52 L91.14,-77.08 L91.78,-78.16 L96.66,-86.8 L101.28,-95.44 L105.66,-104.08 L106.19,-105.16 L109.81,-112.72 L110.31,-113.8 L110.81,-114.88 L114.23,-122.44 L114.71,-123.52 L117.94,-131.08 L118.39,-132.16 L118.84,-133.24 L121.88,-140.8 L122.3,-141.88 L122.72,-142.96 L125.56,-150.52 L125.95,-151.6 L126.34,-152.68 L128.98,-160.24 L129.34,-161.32 L129.7,-162.4 L130.05,-163.48 L132.12,-169.96 L132.45,-171.04 L132.78,-172.12 L133.1,-173.2 L134.97,-179.68 L135.26,-180.76 L135.56,-181.84 L135.85,-182.92 L137.5,-189.4 L137.77,-190.48 L138.02,-191.56 L138.28,-192.64 L138.52,-193.72 L139.7,-199.12 L139.93,-200.2 L140.14,-201.28 L140.36,-202.36 L140.56,-203.44 L141.35,-207.76 L141.53,-208.84 L141.71,-209.92 L141.89,-211 L142.06,-212.08 L142.22,-213.16 L142.38,-214.24 L142.68,-216.4 L142.82,-217.48 L142.96,-218.56 L143.09,-219.64 L143.22,-220.72 L143.34,-221.8 L143.45,-222.88 L143.56,-223.96 L143.66,-225.04 L143.76,-226.12 L143.85,-227.2 L143.94,-228.28 L144.01,-229.36 L144.09,-230.44 L144.15,-231.52 L144.21,-232.6 L144.26,-233.68 L144.31,-234.76 L144.35,-235.84 L144.38,-236.92 L144.41,-238 L144.43,-239.08 L144.44,-240.16 L144.45,-241.24 L144.45,-242.32 L144.44,-243.4 L144.42,-244.48 L144.4,-245.56 L144.36,-246.64 L144.32,-247.72 L144.28,-248.8 L144.22,-249.88 L144.16,-250.96 L144.09,-252.04 L144.01,-253.12 L143.92,-254.2 L143.82,-255.28 L143.72,-256.36 L143.48,-258.52 L143.35,-259.6 L143.21,-260.68 L143.06,-261.76 L142.9,-262.84 L141.95,-268.24 L141.73,-269.32 L141.5,-270.4 L141.26,-271.48 L139.58,-277.96 L139.26,-279.04 L138.92,-280.12 L135.78,-288.76 L135.32,-289.84 L131.7,-297.4 L131.11,-298.48 L125.76,-307.12 L119.96,-314.68 L112.86,-322.24 L105.48,-328.72 L98.19,-334.12 L96.58,-335.2 L89.54,-339.52 L87.61,-340.6 L79.04,-344.92 L68.73,-349.24 L59.28,-352.48 L51.73,-354.64 L47.4,-355.72 L42.56,-356.8 L36.99,-357.88 L30.32,-358.96 L21.52,-360.04 L0,-361.12" stroke="black" stroke-width="1.5" fill="none" style="z-index: 0;"/><image x="-37.88" y="-4.03" width="59.16" height="100.80" transform="rotate(0.00, 0.00, 0)" id="0" xmlns:xlink="http://www.w3.org/1999/xlink" xlink:href="./image/45.png"/><image x="-10.36" y="-5.28" width="10.52" height="10.67" transform="rotate(365.83, 0.00, 0)" id="1" xmlns:xlink="http://www.w3.org/1999/xlink" xlink:href="./image/38.png"/><image x="-20.74" y="-6.36" width="10.52" height="10.67" transform="rotate(376.06, -10.38, -1.08)" id="2" xmlns:xlink="http://www.w3.org/1999/xlink" xlink:href="./image/38.png"/><image x="-30.77" y="-9.15" width="10.52" height="10.67" transform="rotate(384.99, -20.41, -3.87)" id="3" xmlns:xlink="http://www.w3.org/1999/xlink" xlink:href="./image/38.png"/><image x="-40.23" y="-13.55" width="10.52" height="10.67" transform="rotate(392.71, -29.86, -8.26)" id="4" xmlns:xlink="http://www.w3.org/1999/xlink" xlink:href="./image/38.png"/><image x="-49.01" y="-19.12" width="10.52" height="10.67" transform="rotate(398.39, -38.65, -13.84)" id="5" xmlns:xlink="http://www.w3.org/1999/xlink" xlink:href="./image/38.png"/><image x="-57.18" y="-25.58" width="10.52" height="10.67" transform="rotate(402.43, -46.82, -20.3)" id="6" xmlns:xlink="http://www.w3.org/1999/xlink" xlink:href="./image/38.png"/><image x="-64.76" y="-32.68" width="10.52" height="10.67" transform="rotate(406.50, -54.40, -27.4)" id="7" xmlns:xlink="http://www.w3.org/1999/xlink" xlink:href="./image/38.png"/><image x="-71.80" y="-40.24" width="10.52" height="10.67" transform="rotate(409.73, -61.44, -34.96)" id="8" xmlns:xlink="http://www.w3.org/1999/xlink" xlink:href="./image/38.png"/><image x="-78.49" y="-48.27" width="10.52" height="10.67" transform="rotate(412.29, -68.12, -42.98)" id="9" xmlns:xlink="http://www.w3.org/1999/xlink" xlink:href="./image/38.png"/><image x="-84.79" y="-56.6" width="10.52" height="10.67" transform="rotate(414.78, -74.43, -51.31)" id="10" xmlns:xlink="http://www.w3.org/1999/xlink" xlink:href="./image/38.png"/><image x="-90.75" y="-65.17" width="10.52" height="10.67" transform="rotate(416.68, -80.39, -59.89)" id="11" xmlns:xlink="http://www.w3.org/1999/xlink" xlink:href="./image/38.png"/><image x="-96.41" y="-73.94" width="10.52" height="10.67" transform="rotate(418.57, -86.05, -68.65)" id="12" xmlns:xlink="http://www.w3.org/1999/xlink" xlink:href="./image/38.png"/><image x="-101.80" y="-82.87" width="10.52" height="10.67" transform="rotate(420.14, -91.44, -77.59)" id="13" xmlns:xlink="http://www.w3.org/1999/xlink" xlink:href="./image/38.png"/><image x="-106.95" y="-91.95" width="10.52" height="10.67" transform="rotate(421.46, -96.58, -86.67)" id="14" xmlns:xlink="http://www.w3.org/1999/xlink" xlink:href="./image/38.png"/><image x="-111.87" y="-101.16" width="10.52" height="10.67" transform="rotate(423.08, -101.50, -95.87)" id="15" xmlns:xlink="http://www.w3.org/1999/xlink" xlink:href="./image/38.png"/><image x="-116.55" y="-110.44" width="10.52" height="10.67" transform="rotate(424.40, -106.19, -105.16)" id="16" xmlns:xlink="http://www.w3.org/1999/xlink" xlink:href="./image/38.png"/><image x="-121.03" y="-119.85" width="10.52" height="10.67" transform="rotate(425.48, -110.67, -114.57)" id="17" xmlns:xlink="http://www.w3.org/1999/xlink" xlink:href="./image/38.png"/><image x="-125.31" y="-129.35" width="10.52" height="10.67" transform="rotate(426.82, -114.95, -124.07)" id="18" xmlns:xlink="http://www.w3.org/1999/xlink" xlink:href="./image/38.png"/><image x="-129.38" y="-138.95" width="10.52" height="10.67" transform="rotate(427.95, -119.01, -133.67)" id="19" xmlns:xlink="http://www.w3.org/1999/xlink" xlink:href="./image/38.png"/><image x="-133.24" y="-148.64" width="10.52" height="10.67" transform="rotate(429.33, -122.87, -143.35)" id="20" xmlns:xlink="http://www.w3.org/1999/xlink" xlink:href="./image/38.png"/><image x="-136.87" y="-158.42" width="10.52" height="10.67" transform="rotate(430.73, -126.50, -153.13)" id="21" xmlns:xlink="http://www.w3.org/1999/xlink" xlink:href="./image/38.png"/><image x="-140.25" y="-168.27" width="10.52" height="10.67" transform="rotate(432.16, -129.89, -162.99)" id="22" xmlns:xlink="http://www.w3.org/1999/xlink" xlink:href="./image/38.png"/><image x="-143.39" y="-178.23" width="10.52" height="10.67" transform="rotate(433.74, -133.02, -172.94)" id="23" xmlns:xlink="http://www.w3.org/1999/xlink" xlink:href="./image/38.png"/><image x="-146.23" y="-188.27" width="10.52" height="10.67" transform="rotate(435.72, -135.87, -182.99)" id="24" xmlns:xlink="http://www.w3.org/1999/xlink" xlink:href="./image/38.png"/><image x="-148.75" y="-198.4" width="10.52" height="10.67" transform="rotate(437.72, -138.39, -193.11)" id="25" xmlns:xlink="http://www.w3.org/1999/xlink" xlink:href="./image/38.png"/><image x="-150.90" y="-208.6" width="10.52" height="10.67" transform="rotate(440.41, -140.54, -203.32)" id="26" xmlns:xlink="http://www.w3.org/1999/xlink" xlink:href="./image/38.png"/><image x="-152.65" y="-218.86" width="10.52" height="10.67" transform="rotate(442.35, -142.28, -213.58)" id="27" xmlns:xlink="http://www.w3.org/1999/xlink" xlink:href="./image/38.png"/><image x="-153.92" y="-229.24" width="10.52" height="10.67" transform="rotate(446.40, -143.56, -223.95)" id="28" xmlns:xlink="http://www.w3.org/1999/xlink" xlink:href="./image/38.png"/><image x="-154.65" y="-239.6" width="10.52" height="10.67" transform="rotate(449.71, -144.29, -234.31)" id="29" xmlns:xlink="http://www.w3.org/1999/xlink" xlink:href="./image/38.png"/><image x="-154.78" y="-249.99" width="10.52" height="10.67" transform="rotate(453.69, -144.42, -244.71)" id="30" xmlns:xlink="http://www.w3.org/1999/xlink" xlink:href="./image/38.png"/><image x="-154.20" y="-260.36" width="10.52" height="10.67" transform="rotate(457.51, -143.84, -255.08)" id="31" xmlns:xlink="http://www.w3.org/1999/xlink" xlink:href="./image/38.png"/><image x="-152.84" y="-270.68" width="10.52" height="10.67" transform="rotate(462.57, -142.48, -265.4)" id="32" xmlns:xlink="http://www.w3.org/1999/xlink" xlink:href="./image/38.png"/><image x="-150.83" y="-280" width="10.52" height="10.67" transform="rotate(467.58, -140.47, -274.72)" id="33" xmlns:xlink="http://www.w3.org/1999/xlink" xlink:href="./image/38.png"/><image x="-147.74" y="-289.94" width="10.52" height="10.67" transform="rotate(473.26, -137.38, -284.65)" id="34" xmlns:xlink="http://www.w3.org/1999/xlink" xlink:href="./image/38.png"/><image x="-143.67" y="-299.52" width="10.52" height="10.67" transform="rotate(479.35, -133.31, -294.24)" id="35" xmlns:xlink="http://www.w3.org/1999/xlink" xlink:href="./image/38.png"/><image x="-138.95" y="-308.08" width="10.52" height="10.67" transform="rotate(484.91, -128.59, -302.8)" id="36" xmlns:xlink="http://www.w3.org/1999/xlink" xlink:href="./image/38.png"/><image x="-133.02" y="-316.64" width="10.52" height="10.67" transform="rotate(490.40, -122.66, -311.35)" id="37" xmlns:xlink="http://www.w3.org/1999/xlink" xlink:href="./image/38.png"/><image x="-126.19" y="-324.54" width="10.52" height="10.67" transform="rotate(496.42, -115.83, -319.26)" id="38" xmlns:xlink="http://www.w3.org/1999/xlink" xlink:href="./image/38.png"/><image x="-118.61" y="-331.71" width="10.52" height="10.67" transform="rotate(501.68, -108.25, -326.42)" id="39" xmlns:xlink="http://www.w3.org/1999/xlink" xlink:href="./image/38.png"/><image x="-110.38" y="-338.13" width="10.52" height="10.67" transform="rotate(507.02, -100.02, -332.84)" id="40" xmlns:xlink="http://www.w3.org/1999/xlink" xlink:href="./image/38.png"/><image x="-101.64" y="-343.79" width="10.52" height="10.67" transform="rotate(511.24, -91.27, -338.51)" id="41" xmlns:xlink="http://www.w3.org/1999/xlink" xlink:href="./image/38.png"/><image x="38.81" y="-362.9" width="10.52" height="10.67" transform="rotate(-171.09, 39.17, -357.46)" id="42" xmlns:xlink="http://www.w3.org/1999/xlink" xlink:href="./image/38.png"/><image x="48.98" y="-360.67" width="10.52" height="10.67" transform="rotate(-167.53, 49.34, -355.24)" id="43" xmlns:xlink="http://www.w3.org/1999/xlink" xlink:href="./image/38.png"/><image x="59.05" y="-357.88" width="10.52" height="10.67" transform="rotate(-164.89, 59.41, -352.44)" id="44" xmlns:xlink="http://www.w3.org/1999/xlink" xlink:href="./image/38.png"/><image x="68.90" y="-354.47" width="10.52" height="10.67" transform="rotate(-160.94, 69.26, -349.03)" id="45" xmlns:xlink="http://www.w3.org/1999/xlink" xlink:href="./image/38.png"/><image x="78.49" y="-350.45" width="10.52" height="10.67" transform="rotate(-156.71, 78.85, -345.01)" id="46" xmlns:xlink="http://www.w3.org/1999/xlink" xlink:href="./image/38.png"/><image x="87.78" y="-345.74" width="10.52" height="10.67" transform="rotate(-152.90, 88.14, -340.3)" id="47" xmlns:xlink="http://www.w3.org/1999/xlink" xlink:href="./image/38.png"/><image x="96.70" y="-340.31" width="10.52" height="10.67" transform="rotate(-148.85, 97.06, -334.88)" id="48" xmlns:xlink="http://www.w3.org/1999/xlink" xlink:href="./image/38.png"/><image x="105.12" y="-334.16" width="10.52" height="10.67" transform="rotate(-143.67, 105.48, -328.72)" id="49" xmlns:xlink="http://www.w3.org/1999/xlink" xlink:href="./image/38.png"/><image x="112.45" y="-327.72" width="10.52" height="10.67" transform="rotate(-138.94, 112.81, -322.28)" id="50" xmlns:xlink="http://www.w3.org/1999/xlink" xlink:href="./image/38.png"/><image x="119.60" y="-320.12" width="10.52" height="10.67" transform="rotate(-133.08, 119.96, -314.68)" id="51" xmlns:xlink="http://www.w3.org/1999/xlink" xlink:href="./image/38.png"/><image x="125.42" y="-312.54" width="10.52" height="10.67" transform="rotate(-127.23, 125.77, -307.1)" id="52" xmlns:xlink="http://www.w3.org/1999/xlink" xlink:href="./image/38.png"/><image x="130.90" y="-303.65" width="10.52" height="10.67" transform="rotate(-121.58, 131.26, -298.21)" id="53" xmlns:xlink="http://www.w3.org/1999/xlink" xlink:href="./image/38.png"/><image x="135.42" y="-294.2" width="10.52" height="10.67" transform="rotate(-115.94, 135.78, -288.76)" id="54" xmlns:xlink="http://www.w3.org/1999/xlink" xlink:href="./image/38.png"/><image x="138.90" y="-284.48" width="10.52" height="10.67" transform="rotate(-110.11, 139.26, -279.04)" id="55" xmlns:xlink="http://www.w3.org/1999/xlink" xlink:href="./image/38.png"/><image x="141.37" y="-274.76" width="10.52" height="10.67" transform="rotate(-104.07, 141.73, -269.32)" id="56" xmlns:xlink="http://www.w3.org/1999/xlink" xlink:href="./image/38.png"/><image x="142.99" y="-265.04" width="10.52" height="10.67" transform="rotate(-100.00, 143.35, -259.6)" id="57" xmlns:xlink="http://www.w3.org/1999/xlink" xlink:href="./image/38.png"/><image x="143.86" y="-255.32" width="10.52" height="10.67" transform="rotate(-95.67, 144.22, -249.88)" id="58" xmlns:xlink="http://www.w3.org/1999/xlink" xlink:href="./image/38.png"/><image x="144.08" y="-245.6" width="10.52" height="10.67" transform="rotate(-91.32, 144.44, -240.16)" id="59" xmlns:xlink="http://www.w3.org/1999/xlink" xlink:href="./image/38.png"/><image x="143.73" y="-235.88" width="10.52" height="10.67" transform="rotate(-87.48, 144.09, -230.44)" id="60" xmlns:xlink="http://www.w3.org/1999/xlink" xlink:href="./image/38.png"/><image x="142.86" y="-226.16" width="10.52" height="10.67" transform="rotate(-84.45, 143.22, -220.72)" id="61" xmlns:xlink="http://www.w3.org/1999/xlink" xlink:href="./image/38.png"/><image x="141.53" y="-216.44" width="10.52" height="10.67" transform="rotate(-81.84, 141.89, -211)" id="62" xmlns:xlink="http://www.w3.org/1999/xlink" xlink:href="./image/38.png"/><image x="139.78" y="-206.72" width="10.52" height="10.67" transform="rotate(-79.51, 140.14, -201.28)" id="63" xmlns:xlink="http://www.w3.org/1999/xlink" xlink:href="./image/38.png"/><image x="137.66" y="-197" width="10.52" height="10.67" transform="rotate(-77.34, 138.02, -191.56)" id="64" xmlns:xlink="http://www.w3.org/1999/xlink" xlink:href="./image/38.png"/><image x="135.20" y="-187.28" width="10.52" height="10.67" transform="rotate(-75.46, 135.56, -181.84)" id="65" xmlns:xlink="http://www.w3.org/1999/xlink" xlink:href="./image/38.png"/><image x="132.37" y="-177.38" width="10.52" height="10.67" transform="rotate(-73.62, 132.73, -171.94)" id="66" xmlns:xlink="http://www.w3.org/1999/xlink" xlink:href="./image/38.png"/><image x="129.22" y="-167.46" width="10.52" height="10.67" transform="rotate(-72.12, 129.58, -162.03)" id="67" xmlns:xlink="http://www.w3.org/1999/xlink" xlink:href="./image/38.png"/><image x="125.81" y="-157.65" width="10.52" height="10.67" transform="rotate(-70.50, 126.17, -152.21)" id="68" xmlns:xlink="http://www.w3.org/1999/xlink" xlink:href="./image/38.png"/><image x="122.17" y="-147.92" width="10.52" height="10.67" transform="rotate(-69.10, 122.53, -142.48)" id="69" xmlns:xlink="http://www.w3.org/1999/xlink" xlink:href="./image/38.png"/><image x="118.31" y="-138.27" width="10.52" height="10.67" transform="rotate(-67.83, 118.67, -132.83)" id="70" xmlns:xlink="http://www.w3.org/1999/xlink" xlink:href="./image/38.png"/><image x="114.24" y="-128.71" width="10.52" height="10.67" transform="rotate(-66.59, 114.60, -123.28)" id="71" xmlns:xlink="http://www.w3.org/1999/xlink" xlink:href="./image/38.png"/><image x="109.95" y="-119.24" width="10.52" height="10.67" transform="rotate(-65.49, 110.31, -113.8)" id="72" xmlns:xlink="http://www.w3.org/1999/xlink" xlink:href="./image/38.png"/><image x="105.62" y="-110.17" width="10.52" height="10.67" transform="rotate(-64.26, 105.98, -104.73)" id="73" xmlns:xlink="http://www.w3.org/1999/xlink" xlink:href="./image/38.png"/><image x="100.92" y="-100.88" width="10.52" height="10.67" transform="rotate(-63.08, 101.28, -95.44)" id="74" xmlns:xlink="http://www.w3.org/1999/xlink" xlink:href="./image/38.png"/><image x="96.30" y="-92.24" width="10.52" height="10.67" transform="rotate(-61.66, 96.66, -86.8)" id="75" xmlns:xlink="http://www.w3.org/1999/xlink" xlink:href="./image/38.png"/><image x="91.42" y="-83.6" width="10.52" height="10.67" transform="rotate(-60.44, 91.78, -78.16)" id="76" xmlns:xlink="http://www.w3.org/1999/xlink" xlink:href="./image/38.png"/><image x="86.03" y="-74.63" width="10.52" height="10.67" transform="rotate(-58.57, 86.39, -69.19)" id="77" xmlns:xlink="http://www.w3.org/1999/xlink" xlink:href="./image/38.png"/><image x="80.41" y="-65.89" width="10.52" height="10.67" transform="rotate(-56.68, 80.77, -60.46)" id="78" xmlns:xlink="http://www.w3.org/1999/xlink" xlink:href="./image/38.png"/><image x="74.50" y="-57.35" width="10.52" height="10.67" transform="rotate(-54.78, 74.86, -51.91)" id="79" xmlns:xlink="http://www.w3.org/1999/xlink" xlink:href="./image/38.png"/><image x="68.25" y="-49.04" width="10.52" height="10.67" transform="rotate(-52.63, 68.61, -43.6)" id="80" xmlns:xlink="http://www.w3.org/1999/xlink" xlink:href="./image/38.png"/><image x="61.82" y="-41.23" width="10.52" height="10.67" transform="rotate(-50.38, 62.18, -35.8)" id="81" xmlns:xlink="http://www.w3.org/1999/xlink" xlink:href="./image/38.png"/><image x="54.72" y="-33.53" width="10.52" height="10.67" transform="rotate(-47.80, 55.08, -28.09)" id="82" xmlns:xlink="http://www.w3.org/1999/xlink" xlink:href="./image/38.png"/><image x="47.17" y="-26.36" width="10.52" height="10.67" transform="rotate(-43.03, 47.53, -20.92)" id="83" xmlns:xlink="http://www.w3.org/1999/xlink" xlink:href="./image/38.png"/><image x="39.13" y="-19.88" width="10.52" height="10.67" transform="rotate(-38.72, 39.49, -14.44)" id="84" xmlns:xlink="http://www.w3.org/1999/xlink" xlink:href="./image/38.png"/><image x="30.80" y="-14.42" width="10.52" height="10.67" transform="rotate(-34.04, 31.16, -8.99)" id="85" xmlns:xlink="http://www.w3.org/1999/xlink" xlink:href="./image/38.png"/><image x="21.41" y="-9.84" width="10.52" height="10.67" transform="rotate(-25.65, 21.77, -4.4)" id="86" xmlns:xlink="http://www.w3.org/1999/xlink" xlink:href="./image/38.png"/><image x="11.39" y="-6.76" width="10.52" height="10.67" transform="rotate(-17.12, 11.75, -1.32)" id="87" xmlns:xlink="http://www.w3.org/1999/xlink" xlink:href="./image/38.png"/><image x="1.06" y="-5.52" width="10.52" height="10.67" transform="rotate(-5.43, 1.42, -0.09)" id="88" xmlns:xlink="http://www.w3.org/1999/xlink" xlink:href="./image/38.png"/><image x="-92.44" y="-348.75" width="10.52" height="10.67" transform="rotate(515.95, -82.08, -343.46)" id="89" xmlns:xlink="http://www.w3.org/1999/xlink" xlink:href="./image/38.png"/><image x="-82.95" y="-353" width="10.52" height="10.67" transform="rotate(519.45, -72.58, -347.72)" id="90" xmlns:xlink="http://www.w3.org/1999/xlink" xlink:href="./image/38.png"/><image x="-73.17" y="-356.63" width="10.52" height="10.67" transform="rotate(523.50, -62.81, -351.34)" id="91" xmlns:xlink="http://www.w3.org/1999/xlink" xlink:href="./image/38.png"/><image x="-63.21" y="-359.62" width="10.52" height="10.67" transform="rotate(526.04, -52.85, -354.33)" id="92" xmlns:xlink="http://www.w3.org/1999/xlink" xlink:href="./image/38.png"/><image x="-53.06" y="-362.05" width="10.52" height="10.67" transform="rotate(529.53, -42.69, -356.77)" id="93" xmlns:xlink="http://www.w3.org/1999/xlink" xlink:href="./image/38.png"/></svg>